<?xml version="1.0" encoding="UTF-8" standalone="no"?>
<svg
   xmlns:dc="http://purl.org/dc/elements/1.1/"
   xmlns:cc="http://creativecommons.org/ns#"
   xmlns:rdf="http://www.w3.org/1999/02/22-rdf-syntax-ns#"
   xmlns:svg="http://www.w3.org/2000/svg"
   xmlns="http://www.w3.org/2000/svg"
   viewBox="0 0 173.99068 127.99413"
   height="127.99413"
   width="173.99068"
   xml:space="preserve"
   id="svg2"
   version="1.1"><metadata
     id="metadata8"><rdf:RDF><cc:Work
         rdf:about=""><dc:format>image/svg+xml</dc:format><dc:type
           rdf:resource="http://purl.org/dc/dcmitype/StillImage" /></cc:Work></rdf:RDF></metadata><defs
     id="defs6"><clipPath
       id="clipPath18"
       clipPathUnits="userSpaceOnUse"><path
         id="path16"
         d="M 0,95.996 H 130.493 V 0 H 0 Z" /></clipPath></defs><g
     transform="matrix(1.3333333,0,0,-1.3333333,0,127.99413)"
     id="g10"><g
       id="g12"><g
         clip-path="url(#clipPath18)"
         id="g14"><g
           transform="translate(43.8516,18.5078)"
           id="g20"><path
             id="path22"
             style="fill:#000000;fill-opacity:1;fill-rule:nonzero;stroke:none"
             d="m 0,0 c 5.873,-0.825 10.699,-1.214 14.48,-1.173 5.259,0.057 10.115,0.783 14.567,2.184 4.449,1.399 8.293,3.371 11.525,5.915 3.232,2.544 5.746,5.61 7.544,9.201 1.796,3.589 2.671,7.603 2.622,12.042 -0.049,4.476 -1.011,8.49 -2.886,12.039 -1.877,3.55 -4.471,6.562 -7.784,9.035 -3.318,2.473 -7.242,4.36 -11.776,5.662 -4.536,1.3 -9.517,1.923 -14.94,1.864 C 9.186,56.722 4.533,56.208 -0.607,55.227 Z m -26.251,-4.976 -0.02,1.795 3.453,0.037 c 3.89,0.043 6.648,0.94 8.273,2.696 0.975,1.052 1.441,3.412 1.402,7.079 l -0.461,41.97 c -0.044,4.052 -0.703,6.573 -1.974,7.562 -1.715,1.41 -4.354,2.096 -7.914,2.057 l -3.452,-0.038 -0.019,1.737 37.481,0.409 c 6.959,0.074 13.002,-0.12 18.13,-0.586 5.129,-0.464 9.618,-1.246 13.465,-2.343 3.85,-1.097 7.151,-2.536 9.912,-4.32 2.76,-1.785 5.249,-3.958 7.471,-6.519 4.44,-5.124 6.696,-11.043 6.771,-17.758 C 66.318,24.054 65.27,19.661 63.123,15.626 60.976,11.587 57.754,8.088 53.455,5.126 49.158,2.165 43.802,-0.161 37.381,-1.852 30.959,-3.542 23.476,-4.435 14.928,-4.528 Z" /></g><g
           transform="translate(28.1377,70.0664)"
           id="g24"><path
             id="path26"
             style="fill:#000000;fill-opacity:1;fill-rule:nonzero;stroke:none"
             d="m 0,0 h -3.246 v 3.233 h -1.9 V 0 h -3.247 v -1.894 h 3.247 v -3.232 h 1.9 v 3.232 H 0 Z" /></g><g
           transform="translate(19.7451,22.085)"
           id="g28"><path
             id="path30"
             style="fill:#000000;fill-opacity:1;fill-rule:nonzero;stroke:#1d1d1b;stroke-width:2;stroke-linecap:butt;stroke-linejoin:miter;stroke-miterlimit:10;stroke-dasharray:none;stroke-opacity:1"
             d="M 0,0 H 8.393" /></g><g
           transform="translate(70.9014,61.6831)"
           id="g32"><path
             id="path34"
             style="fill:#000000;fill-opacity:1;fill-rule:nonzero;stroke:none"
             d="M 0,0 7.335,-7.179 7.128,11.829 c -6.743,3.72 -14.781,4.806 -22.283,3.033 L 0.035,0 Z" /></g><g
           transform="translate(36.374,62.5605)"
           id="g36"><path
             id="path38"
             style="fill:#000000;fill-opacity:1;fill-rule:nonzero;stroke:none"
             d="M 0,0 31.472,0.35 17.892,13.631 C 10.497,11.488 4.046,6.568 0,0" /></g><g
           transform="translate(35.582,61.2607)"
           id="g40"><path
             id="path42"
             style="fill:#000000;fill-opacity:1;fill-rule:nonzero;stroke:none"
             d="m 0,0 c -3.709,-6.717 -4.807,-14.798 -3.037,-22.287 l 14.863,15.195 v -0.035 l 7.18,7.335 z" /></g><g
           transform="translate(46.5332,19.6025)"
           id="g44"><path
             id="path46"
             style="fill:#000000;fill-opacity:1;fill-rule:nonzero;stroke:none"
             d="M 0,0 -0.352,31.473 -13.633,17.895 C -11.488,10.5 -6.568,4.049 0,0" /></g><g
           transform="translate(47.8125,18.8477)"
           id="g48"><path
             id="path50"
             style="fill:#000000;fill-opacity:1;fill-rule:nonzero;stroke:none"
             d="m 0,0 c 6.744,-3.72 14.781,-4.808 22.284,-3.036 l -15.19,14.862 0.035,10e-4 -7.336,7.178 z" /></g><g
           transform="translate(89.4688,29.7939)"
           id="g52"><path
             id="path54"
             style="fill:#000000;fill-opacity:1;fill-rule:nonzero;stroke:none"
             d="m 0,0 -31.473,-0.346 13.581,-13.283 C -10.5,-11.484 -4.046,-6.566 0,0" /></g><g
           transform="translate(90.2598,31.0957)"
           id="g56"><path
             id="path58"
             style="fill:#000000;fill-opacity:1;fill-rule:nonzero;stroke:none"
             d="m 0,0 c 2.594,4.702 3.935,10.024 3.877,15.421 v 0.002 C 3.85,17.734 3.568,20.041 3.035,22.287 L -11.828,7.094 v 0.034 l -7.176,-7.333 z" /></g><g
           transform="translate(79.3105,72.7554)"
           id="g60"><path
             id="path62"
             style="fill:#000000;fill-opacity:1;fill-rule:nonzero;stroke:none"
             d="m 0,0 0.348,-31.473 13.281,13.578 C 11.486,-10.5 6.568,-4.049 0,0" /></g><g
           transform="translate(35.4941,15.502)"
           id="g64"><path
             id="path66"
             style="fill:#ffffff;fill-opacity:1;fill-rule:nonzero;stroke:none"
             d="m 0,0 -2.088,18.06 1.891,0.021 C 2.201,12.761 5.506,8.94 9.719,6.619 c 4.212,-2.32 9.31,-3.448 15.297,-3.383 4.412,0.048 8.365,0.747 11.861,2.097 3.498,1.35 6.448,3.203 8.853,5.563 2.405,2.359 4.233,5.136 5.48,8.334 1.248,3.199 1.853,6.654 1.811,10.365 -0.044,4.154 -0.863,7.942 -2.453,11.364 -1.591,3.422 -3.716,6.344 -6.377,8.767 -2.66,2.423 -5.763,4.296 -9.312,5.62 -3.548,1.323 -7.303,1.963 -11.264,1.92 C 18.123,57.206 12.937,56.094 8.053,53.928 L 8.234,37.38 C 8.25,35.916 8.33,34.743 8.475,33.858 8.619,32.975 8.842,32.261 9.141,31.72 c 0.298,-0.541 0.674,-0.946 1.127,-1.214 0.453,-0.267 0.974,-0.517 1.56,-0.749 1.267,-0.463 3.408,-0.678 6.422,-0.645 l 0.018,-1.584 -29.303,-0.32 -0.018,1.584 1.418,0.016 c 1.262,0.013 2.341,0.135 3.239,0.367 0.898,0.231 1.624,0.656 2.179,1.275 0.557,0.619 0.963,1.475 1.221,2.568 0.26,1.093 0.379,2.506 0.359,4.243 L -2.828,54.78 c 2.15,0.909 4.26,1.699 6.322,2.368 2.063,0.67 4.162,1.22 6.295,1.652 2.134,0.432 4.336,0.763 6.607,0.992 2.271,0.229 4.689,0.357 7.254,0.386 14.584,0.159 25.743,-3.277 33.471,-10.31 5.729,-5.181 8.633,-11.28 8.709,-18.295 0.029,-2.758 -0.447,-5.47 -1.432,-8.137 -0.982,-2.667 -2.361,-5.203 -4.136,-7.605 -1.774,-2.404 -3.9,-4.607 -6.377,-6.609 C 51.408,7.22 48.692,5.538 45.736,4.178 40.227,1.666 33.691,0.368 26.129,0.286 24.644,0.269 23.316,0.29 22.145,0.345 20.974,0.399 19.779,0.515 18.562,0.688 17.344,0.862 15.99,1.12 14.502,1.462 13.012,1.802 11.184,2.269 9.018,2.856 7.979,3.151 7.109,3.364 6.41,3.492 5.711,3.621 5.182,3.684 4.82,3.679 4.102,3.671 3.496,3.419 3.006,2.919 2.517,2.421 2.211,1.455 2.092,0.022 Z" /></g></g></g></g></svg>