<?xml version="1.0" encoding="UTF-8" standalone="no"?>
<svg
   xmlns:dc="http://purl.org/dc/elements/1.1/"
   xmlns:cc="http://creativecommons.org/ns#"
   xmlns:rdf="http://www.w3.org/1999/02/22-rdf-syntax-ns#"
   xmlns:svg="http://www.w3.org/2000/svg"
   xmlns="http://www.w3.org/2000/svg"
   viewBox="0 0 83.227867 83.193336"
   height="83.193336"
   width="83.227867"
   xml:space="preserve"
   id="svg2"
   version="1.1"><metadata
     id="metadata8"><rdf:RDF><cc:Work
         rdf:about=""><dc:format>image/svg+xml</dc:format><dc:type
           rdf:resource="http://purl.org/dc/dcmitype/StillImage" /></cc:Work></rdf:RDF></metadata><defs
     id="defs6"><clipPath
       id="clipPath18"
       clipPathUnits="userSpaceOnUse"><path
         id="path16"
         d="M 0,62.395 H 62.421 V 0 H 0 Z" /></clipPath></defs><g
     transform="matrix(1.3333333,0,0,-1.3333333,0,83.193333)"
     id="g10"><g
       id="g12"><g
         clip-path="url(#clipPath18)"
         id="g14"><g
           transform="translate(39.1836,46.7017)"
           id="g20"><path
             id="path22"
             style="fill:#000000;fill-opacity:1;fill-rule:nonzero;stroke:none"
             d="M 0,0 7.335,-7.179 7.128,11.829 c -6.743,3.72 -14.781,4.806 -22.283,3.033 L 0.035,0 Z" /></g><g
           transform="translate(4.6562,47.5791)"
           id="g24"><path
             id="path26"
             style="fill:#000000;fill-opacity:1;fill-rule:nonzero;stroke:none"
             d="M 0,0 31.472,0.35 17.892,13.631 C 10.497,11.488 4.046,6.568 0,0" /></g><g
           transform="translate(3.8643,46.2793)"
           id="g28"><path
             id="path30"
             style="fill:#000000;fill-opacity:1;fill-rule:nonzero;stroke:none"
             d="m 0,0 c -3.709,-6.717 -4.807,-14.798 -3.037,-22.287 l 14.863,15.195 v -0.035 l 7.18,7.335 z" /></g><g
           transform="translate(14.8154,4.6211)"
           id="g32"><path
             id="path34"
             style="fill:#000000;fill-opacity:1;fill-rule:nonzero;stroke:none"
             d="M 0,0 -0.352,31.473 -13.633,17.895 C -11.488,10.5 -6.568,4.048 0,0" /></g><g
           transform="translate(16.0947,3.8662)"
           id="g36"><path
             id="path38"
             style="fill:#000000;fill-opacity:1;fill-rule:nonzero;stroke:none"
             d="m 0,0 c 6.744,-3.72 14.781,-4.808 22.284,-3.036 l -15.19,14.862 0.035,10e-4 -7.336,7.177 z" /></g><g
           transform="translate(57.751,14.813)"
           id="g40"><path
             id="path42"
             style="fill:#000000;fill-opacity:1;fill-rule:nonzero;stroke:none"
             d="m 0,0 -31.473,-0.346 13.581,-13.283 C -10.5,-11.485 -4.046,-6.567 0,0" /></g><g
           transform="translate(58.542,16.1143)"
           id="g44"><path
             id="path46"
             style="fill:#000000;fill-opacity:1;fill-rule:nonzero;stroke:none"
             d="m 0,0 c 2.594,4.702 3.935,10.025 3.877,15.421 v 0.002 C 3.85,17.734 3.568,20.041 3.035,22.287 L -11.828,7.094 v 0.034 l -7.176,-7.333 z" /></g><g
           transform="translate(47.5928,57.7739)"
           id="g48"><path
             id="path50"
             style="fill:#000000;fill-opacity:1;fill-rule:nonzero;stroke:none"
             d="m 0,0 0.348,-31.474 13.281,13.579 C 11.486,-10.5 6.568,-4.049 0,0" /></g></g></g></g></svg>