<?xml version="1.0" encoding="UTF-8" standalone="no"?>
<svg
   xmlns:dc="http://purl.org/dc/elements/1.1/"
   xmlns:cc="http://creativecommons.org/ns#"
   xmlns:rdf="http://www.w3.org/1999/02/22-rdf-syntax-ns#"
   xmlns:svg="http://www.w3.org/2000/svg"
   xmlns="http://www.w3.org/2000/svg"
   viewBox="0 0 83.34507 83.349602"
   height="83.349602"
   width="83.34507"
   xml:space="preserve"
   id="svg2"
   version="1.1"><metadata
     id="metadata8"><rdf:RDF><cc:Work
         rdf:about=""><dc:format>image/svg+xml</dc:format><dc:type
           rdf:resource="http://purl.org/dc/dcmitype/StillImage" /></cc:Work></rdf:RDF></metadata><defs
     id="defs6"><clipPath
       id="clipPath18"
       clipPathUnits="userSpaceOnUse"><path
         id="path16"
         d="M 0,62.512 H 62.509 V 0 H 0 Z" /></clipPath></defs><g
     transform="matrix(1.3333333,0,0,-1.3333333,0,83.3496)"
     id="g10"><g
       id="g12"><g
         clip-path="url(#clipPath18)"
         id="g14"><g
           transform="translate(58.3662,46.8716)"
           id="g20"><path
             id="path22"
             style="fill:#000000;fill-opacity:1;fill-rule:nonzero;stroke:none"
             d="m 0,0 c -3.984,6.823 -10.447,11.98 -17.871,14.268 v -27.623 l -0.004,0.001 v -4.522 z" /></g><g
           transform="translate(58.9189,45.8521)"
           id="g24"><path
             id="path26"
             style="fill:#000000;fill-opacity:1;fill-rule:nonzero;stroke:none"
             d="M 0,0 -22.728,-22.727 2.548,-22.729 C 4.558,-15.084 3.633,-6.865 0,0" /></g><g
           transform="translate(46.8691,4.1421)"
           id="g28"><path
             id="path30"
             style="fill:#000000;fill-opacity:1;fill-rule:nonzero;stroke:none"
             d="m 0,0 c 6.825,3.983 11.981,10.446 14.271,17.872 l -27.628,-0.001 0.003,0.005 h -4.522 z" /></g><g
           transform="translate(45.8525,3.5874)"
           id="g32"><path
             id="path34"
             style="fill:#000000;fill-opacity:1;fill-rule:nonzero;stroke:none"
             d="M 0,0 -22.728,22.729 V -2.548 C -15.084,-4.555 -6.867,-3.63 0,0" /></g><g
           transform="translate(4.1416,15.6411)"
           id="g36"><path
             id="path38"
             style="fill:#000000;fill-opacity:1;fill-rule:nonzero;stroke:none"
             d="m 0,0 c 3.984,-6.824 10.449,-11.982 17.871,-14.271 v 27.626 l 0.004,-0.001 v 4.521 z" /></g><g
           transform="translate(3.5889,16.6587)"
           id="g40"><path
             id="path42"
             style="fill:#000000;fill-opacity:1;fill-rule:nonzero;stroke:none"
             d="M 0,0 22.728,22.727 -2.549,22.729 C -4.557,15.086 -3.633,6.867 0,0" /></g><g
           transform="translate(15.6387,58.3696)"
           id="g44"><path
             id="path46"
             style="fill:#000000;fill-opacity:1;fill-rule:nonzero;stroke:none"
             d="m 0,0 c -6.825,-3.984 -11.981,-10.447 -14.271,-17.872 l 27.629,0.001 -0.004,-0.002 4.521,-0.002 z" /></g><g
           transform="translate(16.6553,58.9253)"
           id="g48"><path
             id="path50"
             style="fill:#000000;fill-opacity:1;fill-rule:nonzero;stroke:none"
             d="M 0,0 22.729,-22.731 22.727,2.546 C 15.084,4.555 6.867,3.63 0,0" /></g></g></g></g></svg>